<svg width="106" height="68" viewBox="0 0 106 68" fill="none" xmlns="http://www.w3.org/2000/svg">
<g clip-path="url(#clip0_1082_18)">
<path d="M105.236 19.7291C105.065 19.8647 105.119 20.0635 105.092 20.2353C104.874 21.4103 104.3 22.4898 103.447 23.3266C102.154 24.6462 100.835 25.9388 99.542 27.2404C99.4271 27.3638 99.2868 27.4609 99.1307 27.5249C98.9747 27.5889 98.8066 27.6182 98.6381 27.611H89.9427C88.7063 27.5664 87.5291 27.0697 86.6345 26.215C85.7398 25.3604 85.1899 24.2072 85.0889 22.974C85.0889 22.3956 85.0889 21.8171 85.0889 21.2386C85.0889 20.8499 85.2154 20.7414 85.595 20.7505H91.9222C92.3326 20.7747 92.7384 20.6541 93.0688 20.4096C93.3992 20.1651 93.6332 19.8122 93.73 19.4127C93.8188 18.991 93.7375 18.5513 93.504 18.1891C93.2704 17.827 92.9034 17.5716 92.4826 17.4784C92.1391 17.4229 91.7911 17.3987 91.4432 17.4061C89.5179 17.4061 87.5926 17.4061 85.6764 17.4061C85.2425 17.4061 85.0798 17.2796 85.0798 16.8367C85.0798 11.793 85.0798 6.75235 85.0798 1.71471C85.0798 0.955449 85.0798 0.919294 85.8391 0.810828C86.7579 0.619791 87.7097 0.658429 88.61 0.923318C89.5103 1.18821 90.3313 1.67116 91.0003 2.32935C95.2184 6.54747 99.4365 10.7807 103.655 15.0289C104.506 15.9135 105.032 17.0607 105.146 18.2829C105.146 18.3642 105.146 18.4727 105.236 18.5089V19.7291Z" fill="#29AB00"/>
<path d="M86.2911 37.4637C85.9797 37.3245 85.6461 37.2419 85.3058 37.2196C84.2497 36.9542 83.2867 36.4039 82.5219 35.6288L72.1453 25.2522C71.6391 24.737 71.6391 24.737 72.0458 24.1585C73.1444 22.6619 73.7367 20.8538 73.7367 18.9973C73.7367 17.1408 73.1444 15.3328 72.0458 13.8362C71.6572 13.2757 71.6572 13.2667 72.1543 12.7786L81.392 3.64035C81.4734 3.559 81.5366 3.40534 81.6812 3.45958C81.8259 3.51381 81.7536 3.67651 81.7536 3.79401C81.7536 8.19592 81.7536 12.5978 81.7536 16.9907C81.7536 19.1871 81.627 21.3836 81.8349 23.571C82.0766 25.3475 82.8723 27.0026 84.1088 28.3008C85.3454 29.599 86.9598 30.4743 88.7225 30.802C89.4618 30.9105 90.2079 30.9649 90.9551 30.9647H95.6101C95.6914 31.1184 95.6101 31.1907 95.5287 31.263C93.9921 32.7454 92.5369 34.3091 90.9641 35.7824C89.9675 36.7407 88.6648 37.3169 87.2853 37.4094C87.2554 37.404 87.2246 37.4105 87.1993 37.4273C87.174 37.4442 87.1563 37.4701 87.1497 37.4998L86.2911 37.4637Z" fill="#29AB00"/>
<path d="M52.5855 37.3013C51.7068 37.2974 50.8391 37.1068 50.0397 36.7421C49.2402 36.3775 48.5275 35.8471 47.9485 35.1862C47.2797 34.4811 46.5746 33.7942 45.8877 33.1072C43.2182 30.4317 40.5457 27.7593 37.8702 25.0898C37.5358 24.7644 37.4816 24.5294 37.7799 24.1317C38.9163 22.627 39.5312 20.7929 39.5312 18.9072C39.5312 17.0216 38.9163 15.1874 37.7799 13.6828C37.4906 13.3032 37.5448 13.0862 37.8612 12.7789C41.1815 9.51288 44.4957 6.24083 47.8039 2.96274C48.6275 1.98263 49.7071 1.25041 50.9223 0.847657C51.9725 0.529442 53.0901 0.507045 54.1522 0.78293C55.2142 1.05881 56.1796 1.62229 56.9422 2.41138C61.082 6.53308 65.2037 10.6668 69.3073 14.8126C70.4052 15.9396 71.0151 17.4535 71.005 19.0268C70.9948 20.6001 70.3654 22.1061 69.2531 23.2188C65.0892 27.3706 60.9012 31.5254 56.6891 35.6833C56.1474 36.2128 55.5053 36.6286 54.8006 36.9065C54.0959 37.1843 53.3428 37.3185 52.5855 37.3013ZM52.3233 30.8475C54.5425 30.9194 56.7017 30.1196 58.3386 28.6195C59.9756 27.1194 60.9603 25.0381 61.082 22.8211C61.1745 21.135 60.7625 19.4596 59.8987 18.0088C59.0348 16.5579 57.7582 15.3973 56.2319 14.6752C54.7055 13.953 52.9986 13.7021 51.3289 13.9543C49.6593 14.2066 48.1027 14.9506 46.8578 16.0914C45.6129 17.2323 44.7362 18.7182 44.3395 20.3595C43.9428 22.0008 44.0442 23.7231 44.6307 25.3066C45.2172 26.89 46.2622 28.2628 47.6324 29.2497C49.0025 30.2366 50.6356 30.7929 52.3233 30.8475Z" fill="#29AB00"/>
<path d="M27.1138 6.5871C27.2393 6.77755 27.3783 6.95879 27.5296 7.12943C30.0605 9.68742 32.6365 12.2002 35.1313 14.7944C36.2234 15.9282 36.8214 17.4488 36.7943 19.0228C36.7672 20.5968 36.1171 22.0959 34.9866 23.1914C31.1903 26.9998 27.379 30.7931 23.5525 34.5713C22.7853 35.4407 21.8665 36.1635 20.8409 36.7045C19.7325 37.1938 18.503 37.3399 17.3109 37.124C16.1187 36.9081 15.0185 36.3401 14.1521 35.4933L5.71892 27.051L1.8051 23.1191C1.23386 22.5632 0.779809 21.8985 0.469772 21.1642C0.159736 20.4298 0 19.6408 0 18.8438C0 18.0467 0.159736 17.2577 0.469772 16.5233C0.779809 15.789 1.23386 15.1243 1.8051 14.5684C5.92681 10.4467 10.0666 6.33703 14.2245 2.23943C15.3361 1.14689 16.8256 0.524256 18.3841 0.500694C19.9426 0.477132 21.4503 1.05446 22.5944 2.11288C22.9366 2.40446 23.2056 2.77224 23.3799 3.18667C23.5541 3.6011 23.6287 4.05063 23.5977 4.49914C23.5344 7.39156 23.5977 10.284 23.5977 13.1764C23.5977 13.7911 23.5977 13.7911 22.9921 13.7911C21.3742 13.7911 19.7562 13.7911 18.1473 13.7911C16.9521 13.8282 15.7781 14.1175 14.7025 14.64C13.6269 15.1625 12.6738 15.9065 11.9057 16.823C11.1377 17.7396 10.5719 18.8081 10.2456 19.9586C9.91936 21.109 9.83986 22.3154 10.0124 23.4988C10.335 25.4809 11.3344 27.2901 12.8407 28.6183C14.3469 29.9466 16.2669 30.7119 18.2738 30.7841C19.4029 30.79 20.522 30.5728 21.5669 30.1448C22.6117 29.7169 23.5617 29.0866 24.3621 28.2903C25.1626 27.4941 25.7978 26.5474 26.2313 25.5049C26.6647 24.4623 26.8879 23.3443 26.8879 22.2152C26.8879 18.0303 26.8879 13.8362 26.8879 9.65127V6.69557L27.1138 6.5871Z" fill="#29AB00"/>
<path d="M23.5616 20.0551C23.5964 21.1631 23.545 22.2722 23.4079 23.3723C23.1384 24.6115 22.4206 25.7074 21.3923 26.4496C20.3641 27.1917 19.0978 27.5278 17.8369 27.3933C16.5759 27.2588 15.409 26.6632 14.5604 25.7208C13.7119 24.7785 13.2413 23.5558 13.2393 22.2877C13.2262 20.9748 13.7228 19.7079 14.6247 18.7538C15.5266 17.7996 16.7635 17.2325 18.075 17.1717C19.7472 17.1084 21.4194 17.1717 23.1006 17.1717C23.4622 17.1717 23.5345 17.3525 23.5345 17.6598C23.5526 18.4462 23.5616 19.2506 23.5616 20.0551Z" fill="#29AB00"/>
<path d="M47.4241 22.3508C47.4711 21.0175 48.0317 19.7539 48.9888 18.8243C49.9459 17.8947 51.2252 17.3711 52.5594 17.3629C53.8936 17.3547 55.1793 17.8626 56.1477 18.7804C57.116 19.6982 57.6921 20.9549 57.7555 22.2876C57.7885 22.9837 57.6805 23.6794 57.4379 24.3328C57.1953 24.9862 56.8231 25.5837 56.3436 26.0896C55.8642 26.5955 55.2874 26.9992 54.648 27.2764C54.0086 27.5537 53.3197 27.6988 52.6227 27.7031C51.9258 27.7074 51.2352 27.5707 50.5924 27.3013C49.9496 27.0318 49.368 26.6352 48.8824 26.1353C48.3968 25.6353 48.0173 25.0424 47.7667 24.392C47.5161 23.7417 47.3995 23.0474 47.4241 22.3508Z" fill="#29AB00"/>
</g>
<path d="M13.536 63.288C12.24 63.288 11.032 63.056 9.912 62.592C8.808 62.128 7.832 61.48 6.984 60.648C6.152 59.816 5.496 58.84 5.016 57.72C4.552 56.6 4.32 55.376 4.32 54.048C4.32 52.72 4.552 51.496 5.016 50.376C5.496 49.24 6.152 48.264 6.984 47.448C7.816 46.616 8.792 45.976 9.912 45.528C11.032 45.064 12.24 44.832 13.536 44.832C14.848 44.832 16.056 45.064 17.16 45.528C18.28 45.976 19.256 46.616 20.088 47.448C20.936 48.28 21.592 49.256 22.056 50.376C22.52 51.496 22.752 52.72 22.752 54.048C22.752 55.376 22.512 56.6 22.032 57.72C21.568 58.84 20.92 59.816 20.088 60.648C19.256 61.48 18.28 62.128 17.16 62.592C16.04 63.056 14.832 63.288 13.536 63.288ZM13.536 60.696C14.464 60.696 15.312 60.528 16.08 60.192C16.864 59.856 17.544 59.392 18.12 58.8C18.696 58.192 19.144 57.488 19.464 56.688C19.784 55.872 19.944 54.992 19.944 54.048C19.944 53.104 19.784 52.232 19.464 51.432C19.144 50.632 18.696 49.928 18.12 49.32C17.544 48.712 16.864 48.24 16.08 47.904C15.312 47.568 14.464 47.4 13.536 47.4C12.608 47.4 11.752 47.568 10.968 47.904C10.2 48.24 9.528 48.712 8.952 49.32C8.376 49.928 7.928 50.632 7.608 51.432C7.304 52.232 7.152 53.104 7.152 54.048C7.152 54.992 7.304 55.872 7.608 56.688C7.928 57.488 8.376 58.192 8.952 58.8C9.528 59.392 10.208 59.856 10.992 60.192C11.776 60.528 12.624 60.696 13.536 60.696ZM18.024 65.16L12.168 55.848H15.192L21.072 65.16H18.024ZM30.2863 63.288C29.3103 63.288 28.4543 63.072 27.7183 62.64C26.9823 62.192 26.4063 61.576 25.9903 60.792C25.5903 59.992 25.3903 59.072 25.3903 58.032V50.016H28.1023V57.792C28.1023 58.384 28.2223 58.904 28.4623 59.352C28.7023 59.8 29.0383 60.152 29.4703 60.408C29.9023 60.648 30.3983 60.768 30.9583 60.768C31.5343 60.768 32.0383 60.64 32.4703 60.384C32.9023 60.128 33.2383 59.768 33.4783 59.304C33.7343 58.84 33.8623 58.296 33.8623 57.672V50.016H36.5503V63H33.9823V60.456L34.2703 60.792C33.9663 61.592 33.4623 62.208 32.7583 62.64C32.0543 63.072 31.2303 63.288 30.2863 63.288ZM39.7168 63V50.016H42.4288V63H39.7168ZM39.7168 48.24V45.12H42.4288V48.24H39.7168ZM44.4236 63V60.768L52.0556 51.528L52.4876 52.464H44.7836V50.016H54.8876V52.224L47.3516 61.488L46.9196 60.528H54.9116V63H44.4236ZM60.7845 63.288C59.9045 63.288 59.1285 63.136 58.4565 62.832C57.8005 62.512 57.2885 62.08 56.9205 61.536C56.5525 60.976 56.3685 60.32 56.3685 59.568C56.3685 58.864 56.5205 58.232 56.8245 57.672C57.1445 57.112 57.6325 56.64 58.2885 56.256C58.9445 55.872 59.7685 55.6 60.7605 55.44L65.2725 54.696V56.832L61.2885 57.528C60.5685 57.656 60.0405 57.888 59.7045 58.224C59.3685 58.544 59.2005 58.96 59.2005 59.472C59.2005 59.968 59.3845 60.376 59.7525 60.696C60.1365 61 60.6245 61.152 61.2165 61.152C61.9525 61.152 62.5925 60.992 63.1365 60.672C63.6965 60.352 64.1285 59.928 64.4325 59.4C64.7365 58.856 64.8885 58.256 64.8885 57.6V54.264C64.8885 53.624 64.6485 53.104 64.1685 52.704C63.7045 52.288 63.0805 52.08 62.2965 52.08C61.5765 52.08 60.9445 52.272 60.4005 52.656C59.8725 53.024 59.4805 53.504 59.2245 54.096L56.9685 52.968C57.2085 52.328 57.6005 51.768 58.1445 51.288C58.6885 50.792 59.3205 50.408 60.0405 50.136C60.7765 49.864 61.5525 49.728 62.3685 49.728C63.3925 49.728 64.2965 49.92 65.0805 50.304C65.8805 50.688 66.4965 51.224 66.9285 51.912C67.3765 52.584 67.6005 53.368 67.6005 54.264V63H65.0085V60.648L65.5605 60.72C65.2565 61.248 64.8645 61.704 64.3845 62.088C63.9205 62.472 63.3845 62.768 62.7765 62.976C62.1845 63.184 61.5205 63.288 60.7845 63.288ZM70.7715 67.8V50.016H73.3635V52.704L73.0515 52.08C73.5315 51.344 74.1715 50.768 74.9715 50.352C75.7715 49.936 76.6835 49.728 77.7075 49.728C78.9395 49.728 80.0435 50.024 81.0195 50.616C82.0115 51.208 82.7875 52.016 83.3475 53.04C83.9235 54.064 84.2115 55.216 84.2115 56.496C84.2115 57.776 83.9235 58.928 83.3475 59.952C82.7875 60.976 82.0195 61.792 81.0435 62.4C80.0675 62.992 78.9555 63.288 77.7075 63.288C76.6995 63.288 75.7795 63.08 74.9475 62.664C74.1315 62.248 73.4995 61.648 73.0515 60.864L73.4835 60.36V67.8H70.7715ZM77.4435 60.768C78.2115 60.768 78.8915 60.584 79.4835 60.216C80.0755 59.848 80.5395 59.344 80.8755 58.704C81.2275 58.048 81.4035 57.312 81.4035 56.496C81.4035 55.68 81.2275 54.952 80.8755 54.312C80.5395 53.672 80.0755 53.168 79.4835 52.8C78.8915 52.432 78.2115 52.248 77.4435 52.248C76.6915 52.248 76.0115 52.432 75.4035 52.8C74.8115 53.168 74.3395 53.672 73.9875 54.312C73.6515 54.952 73.4835 55.68 73.4835 56.496C73.4835 57.312 73.6515 58.048 73.9875 58.704C74.3395 59.344 74.8115 59.848 75.4035 60.216C76.0115 60.584 76.6915 60.768 77.4435 60.768ZM86.8496 67.8V50.016H89.4416V52.704L89.1296 52.08C89.6096 51.344 90.2496 50.768 91.0496 50.352C91.8496 49.936 92.7616 49.728 93.7856 49.728C95.0176 49.728 96.1216 50.024 97.0976 50.616C98.0896 51.208 98.8656 52.016 99.4256 53.04C100.002 54.064 100.29 55.216 100.29 56.496C100.29 57.776 100.002 58.928 99.4256 59.952C98.8656 60.976 98.0976 61.792 97.1216 62.4C96.1456 62.992 95.0336 63.288 93.7856 63.288C92.7776 63.288 91.8576 63.08 91.0256 62.664C90.2096 62.248 89.5776 61.648 89.1296 60.864L89.5616 60.36V67.8H86.8496ZM93.5216 60.768C94.2896 60.768 94.9696 60.584 95.5616 60.216C96.1536 59.848 96.6176 59.344 96.9536 58.704C97.3056 58.048 97.4816 57.312 97.4816 56.496C97.4816 55.68 97.3056 54.952 96.9536 54.312C96.6176 53.672 96.1536 53.168 95.5616 52.8C94.9696 52.432 94.2896 52.248 93.5216 52.248C92.7696 52.248 92.0896 52.432 91.4816 52.8C90.8896 53.168 90.4176 53.672 90.0656 54.312C89.7296 54.952 89.5616 55.68 89.5616 56.496C89.5616 57.312 89.7296 58.048 90.0656 58.704C90.4176 59.344 90.8896 59.848 91.4816 60.216C92.0896 60.584 92.7696 60.768 93.5216 60.768Z" fill="#29AB00"/>
<defs>
<clipPath id="clip0_1082_18">
<rect width="106" height="38" fill="white"/>
</clipPath>
</defs>
</svg>
